<?xml version="1.0" standalone="no"?>
<!DOCTYPE svg PUBLIC "-//W3C//DTD SVG 20010904//EN"
 "http://www.w3.org/TR/2001/REC-SVG-20010904/DTD/svg10.dtd">
<svg version="1.0" xmlns="http://www.w3.org/2000/svg"
 width="32.000000pt" height="32.000000pt" viewBox="0 0 32.000000 32.000000"
 preserveAspectRatio="xMidYMid meet">

<g transform="translate(0.000000,32.000000) scale(0.100000,-0.100000)"
fill="#000000" stroke="none">
<path d="M12 308 c-17 -17 -17 -279 0 -296 17 -17 279 -17 296 0 17 17 17 279
0 296 -17 17 -279 17 -296 0z m128 -100 c-1 -21 -2 -22 -14 -5 -14 18 -37 22
-50 10 -4 -4 12 -24 36 -45 36 -31 41 -40 32 -55 -7 -12 -26 -19 -53 -21 -37
-3 -41 -1 -41 19 0 21 1 21 18 6 20 -18 48 -22 56 -9 7 11 -4 24 -37 45 -53
34 -43 77 19 77 29 0 34 -4 34 -22z m114 6 c9 -8 16 -19 16 -24 0 -16 -31 -40
-51 -40 -13 0 -19 -7 -19 -24 0 -13 6 -27 13 -29 6 -3 -4 -5 -23 -5 -19 0 -29
2 -22 5 7 3 12 26 12 63 0 37 -5 60 -12 63 -7 3 6 6 29 6 25 1 48 -5 57 -15z"/>
<path d="M200 190 c0 -25 4 -31 18 -28 11 2 17 12 17 28 0 16 -6 26 -17 28
-14 3 -18 -3 -18 -28z"/>
</g>
</svg>
